<svg xmlns="http://www.w3.org/2000/svg" width="128" height="128" viewBox="0 0 128 128"><rect width="128" height="128" fill="white"/><path d="M64 16C37.49 16 16 37.49 16 64C16 90.51 37.49 112 64 112C90.51 112 112 90.51 112 64C112 37.49 90.51 16 64 16ZM64 24C86.09 24 104 41.91 104 64C104 86.09 86.09 104 64 104C41.91 104 24 86.09 24 64C24 41.91 41.91 24 64 24ZM64 32C46.33 32 32 46.33 32 64C32 81.67 46.33 96 64 96C81.67 96 96 81.67 96 64C96 46.33 81.67 32 64 32ZM64 40C77.25 40 88 50.75 88 64C88 77.25 77.25 88 64 88C50.75 88 40 77.25 40 64C40 50.75 50.75 40 64 40ZM64 48C55.16 48 48 55.16 48 64C48 72.84 55.16 80 64 80C72.84 80 80 72.84 80 64C80 55.16 72.84 48 64 48ZM64 56C68.42 56 72 59.58 72 64C72 68.42 68.42 72 64 72C59.58 72 56 68.42 56 64C56 59.58 59.58 56 64 56Z" fill="black"/></svg>
